<?xml version="1.0" standalone="no"?><!DOCTYPE svg PUBLIC "-//W3C//DTD SVG 1.1//EN" "http://www.w3.org/Graphics/SVG/1.1/DTD/svg11.dtd"><svg t="1528550294063" class="icon" style="" viewBox="0 0 1024 1024" version="1.1" xmlns="http://www.w3.org/2000/svg" p-id="657" xmlns:xlink="http://www.w3.org/1999/xlink" width="200" height="200"><defs><style type="text/css"></style></defs><path d="M213.8 671c-1 0-2.1-0.4-2.9-1.2L177.1 636c-1.6-1.6-1.6-4.2 0-5.8 1.6-1.6 4.2-1.6 5.8 0l33.8 33.8c1.6 1.6 1.6 4.2 0 5.8-0.8 0.8-1.8 1.2-2.9 1.2z" fill="#C48252" p-id="658"></path><path d="M180 671c-1 0-2.1-0.4-2.9-1.2-1.6-1.6-1.6-4.2 0-5.8l33.8-33.8c1.6-1.6 4.2-1.6 5.8 0s1.6 4.2 0 5.8l-33.8 33.8c-0.8 0.8-1.9 1.2-2.9 1.2zM864.5 664.4c-1 0-2.1-0.4-2.9-1.2l-33.8-33.8c-1.6-1.6-1.6-4.2 0-5.8 1.6-1.6 4.2-1.6 5.8 0l33.8 33.8c1.6 1.6 1.6 4.2 0 5.8-0.8 0.8-1.8 1.2-2.9 1.2z" fill="#C48252" p-id="659"></path><path d="M830.7 664.4c-1 0-2.1-0.4-2.9-1.2-1.6-1.6-1.6-4.2 0-5.8l33.8-33.8c1.6-1.6 4.2-1.6 5.8 0 1.6 1.6 1.6 4.2 0 5.8l-33.8 33.8c-0.8 0.8-1.9 1.2-2.9 1.2zM105 559.7c-15 0-27.2-12.2-27.2-27.2S90 505.3 105 505.3s27.2 12.2 27.2 27.2c0.1 15-12.2 27.2-27.2 27.2z m0-46.3c-10.5 0-19 8.5-19 19s8.5 19 19 19 19-8.5 19-19c0.1-10.4-8.5-19-19-19zM180 852.4c-15 0-27.2-12.2-27.2-27.2S165 798 180 798s27.2 12.2 27.2 27.2c0 14.9-12.2 27.2-27.2 27.2z m0-46.3c-10.5 0-19 8.5-19 19s8.5 19 19 19 19-8.5 19-19-8.5-19-19-19zM690.8 258.8c-15 0-27.2-12.2-27.2-27.2s12.2-27.2 27.2-27.2 27.2 12.2 27.2 27.2c0 14.9-12.2 27.2-27.2 27.2z m0-46.3c-10.5 0-19 8.5-19 19s8.5 19 19 19 19-8.5 19-19-8.5-19-19-19zM919 802.5c-15 0-27.2-12.2-27.2-27.2s12.2-27.2 27.2-27.2 27.2 12.2 27.2 27.2c0 14.9-12.2 27.2-27.2 27.2z m0-46.3c-10.5 0-19 8.5-19 19s8.5 19 19 19 19-8.5 19-19-8.5-19-19-19zM895.5 233.8c-2.3 0-4.1-1.8-4.1-4.1v-32c0-2.3 1.8-4.1 4.1-4.1s4.1 1.8 4.1 4.1v32c0 2.2-1.9 4.1-4.1 4.1zM875.3 243.3c-0.7 0-1.4-0.2-2-0.5l-27.7-16c-2-1.1-2.6-3.6-1.5-5.6 1.1-2 3.6-2.6 5.6-1.5l27.7 16c2 1.1 2.6 3.6 1.5 5.6-0.8 1.3-2.2 2-3.6 2zM845.8 281.6c-1.4 0-2.8-0.7-3.5-2-1.1-2-0.5-4.5 1.5-5.6l27.7-16c2-1.1 4.5-0.5 5.6 1.5 1.1 2 0.5 4.5-1.5 5.6l-27.7 16c-0.7 0.3-1.4 0.5-2.1 0.5zM891.9 310.2c-2.3 0-4.1-1.8-4.1-4.1v-32c0-2.3 1.8-4.1 4.1-4.1s4.1 1.8 4.1 4.1v32c0 2.3-1.8 4.1-4.1 4.1zM939.8 284.7c-0.7 0-1.4-0.2-2-0.5l-27.7-16c-2-1.1-2.6-3.6-1.5-5.6 1.1-2 3.6-2.6 5.6-1.5l27.7 16c2 1.1 2.6 3.6 1.5 5.6-0.8 1.2-2.2 2-3.6 2zM913.8 246.4c-1.4 0-2.8-0.7-3.5-2-1.1-2-0.5-4.5 1.5-5.6l27.7-16c1.9-1.1 4.5-0.5 5.6 1.5 1.1 2 0.5 4.5-1.5 5.6l-27.7 16c-0.7 0.3-1.4 0.5-2.1 0.5zM398.1 138.6c-2.3 0-4.1-1.8-4.1-4.1v-32c0-2.3 1.8-4.1 4.1-4.1s4.1 1.8 4.1 4.1v32c0 2.3-1.8 4.1-4.1 4.1zM378 148.2c-0.7 0-1.4-0.2-2-0.5l-27.7-16c-2-1.1-2.6-3.6-1.5-5.6 1.1-2 3.6-2.6 5.6-1.5l27.7 16c2 1.1 2.6 3.6 1.5 5.6-0.8 1.3-2.2 2-3.6 2zM348.5 186.4c-1.4 0-2.8-0.7-3.5-2-1.1-2-0.5-4.5 1.5-5.6l27.7-16c2-1.1 4.5-0.5 5.6 1.5 1.1 2 0.5 4.5-1.5 5.6l-27.7 16c-0.7 0.3-1.4 0.5-2.1 0.5zM394.6 215.1c-2.3 0-4.1-1.8-4.1-4.1v-32c0-2.3 1.8-4.1 4.1-4.1s4.1 1.8 4.1 4.1v32c0 2.3-1.8 4.1-4.1 4.1zM442.5 189.5c-0.7 0-1.4-0.2-2-0.5l-27.7-16c-2-1.1-2.6-3.6-1.5-5.6 1.1-2 3.6-2.6 5.6-1.5l27.7 16c2 1.1 2.6 3.6 1.5 5.6-0.9 1.3-2.2 2-3.6 2zM416.5 151.3c-1.4 0-2.8-0.7-3.5-2-1.1-2-0.5-4.5 1.5-5.6l27.7-16c2-1.1 4.5-0.5 5.6 1.5 1.1 2 0.5 4.5-1.5 5.6l-27.7 16c-0.7 0.3-1.4 0.5-2.1 0.5zM211.7 252.7c-2.3 0-4.1-1.8-4.1-4.1v-34.2c0-2.3 1.8-4.1 4.1-4.1s4.1 1.8 4.1 4.1v34.2c0 2.3-1.8 4.1-4.1 4.1z" fill="#C48252" p-id="660"></path><path d="M226.6 244.2c-0.7 0-1.4-0.2-2-0.5L195 226.6c-2-1.1-2.6-3.6-1.5-5.6 1.1-2 3.6-2.6 5.6-1.5l29.6 17.1c2 1.1 2.6 3.6 1.5 5.6-0.9 1.2-2.2 2-3.6 2z" fill="#C48252" p-id="661"></path><path d="M196.9 244.2c-1.4 0-2.8-0.7-3.5-2-1.1-2-0.5-4.5 1.5-5.6l29.6-17.1c2-1.1 4.5-0.5 5.6 1.5 1.1 2 0.5 4.5-1.5 5.6l-29.6 17c-0.7 0.4-1.4 0.6-2.1 0.6z" fill="#C48252" p-id="662"></path><path d="M891.9 506.2c-2.3 0-4.1-1.8-4.1-4.1v-34.2c0-2.3 1.8-4.1 4.1-4.1s4.1 1.8 4.1 4.1v34.2c0 2.2-1.8 4.1-4.1 4.1z" fill="#C48252" p-id="663"></path><path d="M906.7 497.6c-0.7 0-1.4-0.2-2-0.6L875 479.9c-2-1.1-2.6-3.6-1.5-5.6 1.1-2 3.6-2.6 5.6-1.5l29.6 17.1c2 1.1 2.6 3.6 1.5 5.6-0.7 1.4-2.1 2.1-3.5 2.1z" fill="#C48252" p-id="664"></path><path d="M877.1 497.6c-1.4 0-2.8-0.7-3.5-2-1.1-2-0.5-4.5 1.5-5.6l29.6-17.1c2-1.1 4.5-0.5 5.6 1.5 1.1 2 0.5 4.5-1.5 5.6l-29.6 17.1c-0.7 0.3-1.4 0.5-2.1 0.5z" fill="#C48252" p-id="665"></path><path d="M369.1 644c-1.1 0-2.1-0.2-3.2-0.6-30-12.6-45.1-25.1-45.8-25.6-1.9-1.6-2.9-3.9-2.9-6.3v-59.8c-62.4-8.3-113.7-62.1-113.7-120.9 0-65 60.9-122.1 130.3-122.1 4.5 0 8.2 3.7 8.2 8.2 0 4.5-3.7 8.2-8.2 8.2-60.7 0-113.9 49.4-113.9 105.7 0 52.9 48.6 101.1 106.1 105.3 4.3 0.3 7.6 3.9 7.6 8.2v63.1c5.4 3.9 18.4 12.4 38.7 20.9 4.2 1.8 6.1 6.6 4.4 10.7-1.3 3.1-4.4 5-7.6 5z" fill="#C48252" p-id="666"></path><path d="M407.5 352.1c-1.9 0-3.8-0.7-5.3-1.9-14.1-12-31.2-20.1-49.2-23.4-4.5-0.8-7.4-5.1-6.6-9.5 0.8-4.5 5-7.4 9.5-6.6 16.7 3.1 32.6 9.6 46.7 19.2 15.6-50.6 62.7-86.2 116.7-86.2 28.3 0 56 9.9 77.8 28 3.5 2.9 4 8.1 1.1 11.5-2.9 3.5-8.1 4-11.5 1.1-18.9-15.6-42.8-24.2-67.3-24.2-50.4 0-94.1 35.9-103.7 85.4-0.6 2.9-2.6 5.2-5.3 6.2-1.1 0.3-2 0.4-2.9 0.4z" fill="#C48252" p-id="667"></path><path d="M764.2 537c-2.9 0-5.7-1.5-7.2-4.3-2.2-4-0.7-9 3.2-11.1 35.9-19.7 58.3-54.6 58.3-90.9 0-56.3-53.2-105.7-113.9-105.7-25 0-49.2 8.9-68.3 25.1-2.2 1.9-5.3 2.5-8 1.5s-4.8-3.3-5.3-6.2c-3.3-16.8-10.7-32.7-21.5-46.1-2.9-3.5-2.3-8.7 1.2-11.5 3.5-2.8 8.7-2.3 11.5 1.2 9.8 12.1 17.2 26 21.7 40.8 20.2-13.8 44.2-21.2 68.7-21.2 69.4 0 130.3 57.1 130.3 122.1 0 42.3-25.6 82.6-66.8 105.3-1.2 0.7-2.5 1-3.9 1z" fill="#C48252" p-id="668"></path><path d="M527.7 668.8c-4.3 0-8-3.4-8.2-7.8-0.2-4.5 3.3-8.4 7.8-8.6 91.7-4.6 160.4-37.1 177.5-45.9v-62.3c0-4.3 3.3-7.9 7.6-8.2 8.3-0.6 16.6-2.2 24.8-4.7 4.3-1.3 8.9 1.1 10.2 5.5 1.3 4.3-1.1 8.9-5.5 10.2-6.8 2.1-13.8 3.6-20.8 4.5v59.8c0 2.9-1.6 5.7-4.1 7.1-3.2 1.8-79.4 44.8-188.9 50.3-0.1 0.1-0.2 0.1-0.4 0.1z" fill="#C48252" p-id="669"></path><path d="M505.6 669.4c-32.5 0-63.7-3.6-92.7-10.7-4.4-1.1-7.1-5.5-6-9.9 1.1-4.4 5.5-7.1 9.9-6 27.7 6.8 57.6 10.2 88.8 10.2 4.5 0 8.2 3.7 8.2 8.2 0 4.5-3.6 8.2-8.2 8.2z" fill="#C48252" p-id="670"></path><path d="M417.5 873.7c-2.3 0-4.6-1-6.2-2.9-75-88.2-93.3-251.6-94-258.5-0.5-4.5 2.8-8.5 7.3-9 4.6-0.5 8.6 2.8 9 7.3 0.2 1.6 18.5 165.3 90.2 249.7 2.9 3.5 2.5 8.6-0.9 11.6-1.6 1.2-3.5 1.8-5.4 1.8z" fill="#C48252" p-id="671"></path><path d="M519.3 925.6c-32.9 0-63-12-89.6-35.8-3.4-3-3.7-8.2-0.7-11.6 3-3.4 8.2-3.7 11.6-0.7 23.5 21 50 31.6 78.7 31.6 52.1 0 95.8-34.5 130.2-102.5 2-4 7-5.7 11-3.6 4 2 5.7 7 3.6 11-37.3 74.1-86 111.6-144.8 111.6z" fill="#C48252" p-id="672"></path><path d="M667.8 794.9c-1.1 0-2.2-0.2-3.2-0.7-4.2-1.8-6.1-6.6-4.3-10.8 34.7-81.1 44.7-172 44.8-172.9 0.5-4.5 4.4-7.8 9-7.3 4.5 0.5 7.8 4.5 7.3 9-0.4 3.8-10.4 94.3-46 177.6-1.4 3.3-4.4 5.1-7.6 5.1z" fill="#C48252" p-id="673"></path><path d="M339.6 742.4c-23.9 0-45.1-25.3-49.3-59.8-2-16.8 0.4-33.2 6.8-46.2 7-14.2 17.9-22.9 30.7-24.4 4.5-0.5 8.6 2.7 9.1 7.1 0.5 4.5-2.7 8.6-7.1 9.1-7.1 0.9-13.5 6.3-18 15.4-5 10.2-6.9 23.3-5.2 37 3.2 26.5 19.3 47.3 35.1 45.3 4.5-0.5 8.6 2.7 9.1 7.1 0.5 4.5-2.7 8.6-7.1 9.1-1.3 0.2-2.7 0.3-4.1 0.3z" fill="#C48252" p-id="674"></path><path d="M693.9 742.4c-1.4 0-2.7-0.1-4.1-0.2-4.5-0.6-7.7-4.6-7.1-9.1 0.6-4.5 4.6-7.7 9.1-7.1 15.8 2 31.9-18.8 35.1-45.3 1.7-13.7-0.2-26.8-5.2-37-4.5-9.1-10.9-14.5-18-15.4-4.5-0.6-7.7-4.6-7.1-9.1 0.6-4.5 4.6-7.7 9.1-7.1 12.8 1.6 23.7 10.2 30.7 24.4 6.4 13 8.8 29.5 6.8 46.2-4.2 34.4-25.5 59.7-49.3 59.7z" fill="#C48252" p-id="675"></path><path d="M470.6 838c-31.4 0-56.9-21.1-56.9-47.1 0-4.5 3.7-8.2 8.2-8.2s8.2 3.7 8.2 8.2c0 17 18.2 30.7 40.5 30.7s40.4-13.8 40.4-30.7c0-4.5 3.7-8.2 8.2-8.2 4.5 0 8.2 3.7 8.2 8.2 0 26-25.5 47.1-56.8 47.1z" fill="#C48252" p-id="676"></path><path d="M567.9 838c-31.3 0-56.8-21.1-56.8-47.1 0-4.5 3.7-8.2 8.2-8.2 4.5 0 8.2 3.7 8.2 8.2 0 17 18.1 30.7 40.4 30.7 22.3 0 40.4-13.8 40.4-30.7 0-4.5 3.7-8.2 8.2-8.2 4.5 0 8.2 3.7 8.2 8.2 0 26-25.5 47.1-56.8 47.1z" fill="#C48252" p-id="677"></path></svg>