<?xml version="1.0" standalone="no"?><!DOCTYPE svg PUBLIC "-//W3C//DTD SVG 1.1//EN" "http://www.w3.org/Graphics/SVG/1.1/DTD/svg11.dtd"><svg t="1528550349525" class="icon" style="" viewBox="0 0 1024 1024" version="1.1" xmlns="http://www.w3.org/2000/svg" p-id="1764" xmlns:xlink="http://www.w3.org/1999/xlink" width="200" height="200"><defs><style type="text/css"></style></defs><path d="M431.976432 821.727157c-5.516644-3.953032-12.172227-5.90857-19.966751-5.90857-7.794523 0-14.4542 1.955538-19.962657 5.90857-5.520737 3.936659-8.262174 8.694009-8.262174 14.257725 0 5.572926 2.741437 10.329253 8.262174 14.266935 5.508457 3.944845 12.168134 5.915733 19.962657 5.915733 7.794523 0 14.450107-1.970888 19.966751-5.915733 5.507434-3.937682 8.270361-8.694009 8.270361-14.266935C440.246793 830.421166 437.483866 825.663816 431.976432 821.727157L431.976432 821.727157zM422.861844 843.74052c-2.986007 2.133593-6.603395 3.204995-10.852162 3.204995-4.193509 0-7.794523-1.071402-10.80509-3.204995-3.013637-2.127454-4.51278-4.721535-4.51278-7.755638 0-3.025916 1.499144-5.619998 4.51278-7.742335 3.010567-2.142803 6.611581-3.206018 10.80509-3.206018 4.248767 0 7.866155 1.063215 10.852162 3.206018 2.986007 2.122337 4.476965 4.716418 4.476965 7.742335C427.338808 839.018985 425.847851 841.613066 422.861844 843.74052L422.861844 843.74052zM438.387445 349.714893c-13.806447 0-24.99937 11.200086-24.99937 25.007557 0 13.814634 11.192923 25.006534 24.99937 25.006534 13.806447 0 24.99937-11.1919 24.99937-25.006534C463.386816 360.91498 452.193893 349.714893 438.387445 349.714893L438.387445 349.714893zM579.284429 349.714893c-13.806447 0-24.99937 11.200086-24.99937 25.007557 0 13.814634 11.192923 25.006534 24.99937 25.006534 13.81054 0 24.998347-11.1919 24.998347-25.006534C604.282776 360.91498 593.09497 349.714893 579.284429 349.714893L579.284429 349.714893zM456.383308 815.818587l-12.911054 0 0 40.348963 48.399313 0 0-9.222035-35.488259 0L456.383308 815.818587 456.383308 815.818587zM328.174298 796.388049c31.67849-23.040762 108.834754-6.955412 145.229662 0 1.319042-1.143033-1.998517-2.369977-2.726088-2.721994-12.855796-6.303566-27.341718-11.963473-35.456536-21.776979 20.846794-6.943133 39.885406-14.011108 64.092737-12.252045 18.691711 1.363044 34.517141 8.039093 47.044456 14.290471 4.820796 2.405793 10.069333 6.412037 13.630439 6.807033 5.0449 0.559748 11.979846-2.673899 15.685237-3.40147-22.528086-11.17655-41.895179-24.511253-72.275093-26.541493-36.434817-2.442632-70.323649 7.182586-102.266152 16.328897-32.162514 9.209756-63.285349 18.302855-90.686419 29.267581 3.26537 4.449335 4.920056 10.513448 8.182356 14.969946C319.572386 804.211225 323.697333 799.642163 328.174298 796.388049L328.174298 796.388049zM495.092935 856.16755l12.911054 0 0-40.348963-12.911054 0L495.092935 856.16755 495.092935 856.16755zM359.429139 326.854233c-0.379647 5.288446-0.579191 10.637268-0.579191 16.041348 0 101.695147 68.165496 184.142927 152.260799 184.142927 84.09428 0 152.260799-82.44778 152.260799-184.142927 0-6.055926-0.248663-12.047384-0.723477-17.955954 4.628414-6.423293 8.209986-13.282514 9.480932-20.141736 25.910113-139.749858-93.968162-169.733753-143.130861-176.140673 1.627057-1.87879 2.562359-4.013407 2.562359-6.28003 0-7.53051-10.172687-13.638625-22.720468-13.638625-12.551874 0-22.724561 6.108115-22.724561 13.638625 0 2.15099 0.847298 4.173043 2.321882 5.980201-45.732577 5.723352-151.760402 34.292014-138.230248 176.440501C350.882486 311.917032 354.584808 319.587736 359.429139 326.854233L359.429139 326.854233zM511.110747 504.305761c-72.627111 0-131.754766-69.508074-134.00911-156.270113 6.467295 6.544043 11.543917 10.773368 11.543917 10.773368s57.860802-25.314549 120.114658-25.314549c61.457724 0 117.720122 25.314549 117.720122 25.314549s8.7902-5.848195 18.694781-14.818497C644.688022 432.627255 584.852238 504.305761 511.110747 504.305761L511.110747 504.305761zM458.84129 204.221218l99.988272 0 0 36.375465-99.988272 0L458.84129 204.221218 458.84129 204.221218zM510.398526 260.619716c66.303079 0.039909 129.353067 16.939811 148.963707 43.853787-45.949518-18.727527-101.30322-27.860535-152.132886-26.15059-81.992409 2.758834-152.22089 26.15059-152.22089 26.15059C391.019625 273.646404 451.974905 260.58697 510.398526 260.619716L510.398526 260.619716zM350.303294 840.606133l-17.331737-24.787546-12.916171 0 0 40.348963 12.907984 0 0-18.275225 13.302981 18.275225 8.069793 0 13.31526-18.275225 0 18.275225 12.899798 0 0-40.348963-12.923334 0L350.303294 840.606133 350.303294 840.606133zM647.821385 816.630069c-2.965541 5.764284-7.018857 11.272741-12.17939 16.57756l10.444886 0c3.086291-3.106758 4.956895-5.804193 6.890944-9.046027 1.863441 3.241834 3.929496 6.02011 6.891967 9.046027l10.500145 0c-5.148253-5.304819-9.277294-10.813277-12.175297-16.57756L647.821385 816.630069 647.821385 816.630069zM666.760736 837.084936l-8.498558 0 0-4.209882-10.564613 0 0 4.209882-10.887978 0 0 2.313695 21.636786 0-6.883781 7.239891-2.070148-1.64343-10.94426 0 13.526061 10.860349 10.945283 0-5.664-4.544503 11.592013-11.996219c0.38374-0.463558 0.25992-1.050935-0.132006-1.5104C668.303882 837.332577 667.599847 837.084936 666.760736 837.084936L666.760736 837.084936zM615.615892 816.038598l-9.721409 0 0 5.976108-15.97381 0 0 2.39863 15.97381 0 0 31.606859 9.721409 0 0-31.606859 16.556071 0 0-2.39863-16.556071 0L615.615892 816.038598 615.615892 816.038598zM695.616948 818.309314c-0.835018-0.499373-1.934049-0.791016-3.162016-0.791016l-20.541849 0 0 38.337143 9.725502 0 0-35.979446 3.222391 0c0.575098 0 1.154289 0.079818 1.542122 0.375553 0.452301 0.252757 0.584308 0.548492 0.511653 0.884137l-2.378164 11.739369-1.482771 0 0 2.314719 3.03001 0c0.775666 0 1.415232 0.379647 1.415232 0.799202l0 13.551644c0 0.463558-0.639566 0.719384-1.415232 0.719384l-3.03001 0 0 2.393513 8.826016 0c2.449795 0 4.445242-1.134847 4.445242-2.481518l0-14.770402c0-0.923022-0.963954-1.810229-2.446725-2.233877l2.706645-13.047154C696.776354 819.448254 696.320982 818.856783 695.616948 818.309314L695.616948 818.309314zM600.222297 778.696108c-47.320749 2.194992-99.492992 13.506619-145.913231 4.76042 8.753361 4.097318 17.436114 12.476149 27.956725 13.610996 14.062274 1.52268 30.979572-2.122337 47.044456-3.40147 37.166481-2.962471 85.213777-8.953929 119.318526-2.042519 7.695263 1.558495 23.575952 6.739495 37.922704 17.203824l32.561603 2.530636C689.313382 788.441053 637.540228 776.961604 600.222297 778.696108L600.222297 778.696108zM834.515415 750.615563c-18.767436-62.121849-40.241516-168.18242-48.080042-199.537546-4.808516-19.230993-90.326215-48.079018-125.007085-48.079018 0 0-37.114293 65.927525-149.046594 67.310012-77.079516 0.955768-144.246265-67.310012-144.246265-67.310012-34.896788 0-127.413901 26.442232-129.816624 48.079018-0.298805 2.702552-37.502126 136.711661-52.887534 199.537546-31.250748 186.125071 55.290257 161.070442 170.684404 161.070442l293.292859 0C781.626857 911.686005 877.79001 953.565834 834.515415 750.615563L834.515415 750.615563zM757.587348 887.642402c-60.102866-5.216815-403.87849-2.402723-475.997018 0-26.429952 0.883113 0-336.564385 0-336.564385s19.230993-18.426675 52.887534-19.230993c17.97642 31.251771 9.618055 144.243195 43.274596 163.473165 36.45119 20.830421 237.994416 31.251771 278.867312-4.808516 26.442232-43.270503 33.653471-158.664649 33.653471-158.664649 21.565155-12.023848 21.149693 10.404977 43.270503 9.618055C762.871701 540.414143 764.798587 791.483342 757.587348 887.642402L757.587348 887.642402zM577.812915 836.908928l9.725502 0-4.248767-9.505491-9.794064 0L577.812915 836.908928 577.812915 836.908928zM571.309804 855.855442l9.721409 0c3.157923-4.248767 5.288446-9.92914 6.571672-15.905248l-9.725502 0C576.717977 845.998957 574.591547 850.599741 571.309804 855.855442L571.309804 855.855442zM572.725036 815.95878l4.188392 8.830109 9.717316 0-4.116761-8.830109L572.725036 815.95878 572.725036 815.95878zM592.111572 842.724377c0 3.318582-0.580215 8.7902-2.12643 13.131065l9.601682 0c1.414209-3.873214 1.797949-9.973142 1.797949-13.131065l0-15.909341-9.337669 0L592.111572 842.724377 592.111572 842.724377zM630.045533 826.815035l-9.337669 0 0 15.909341c0 3.157923 0.387833 9.257851 1.803066 13.131065l9.589402 0c-1.602498-4.340865-2.122337-9.812483-2.122337-13.131065L630.045533 826.815035 630.045533 826.815035zM550.751582 838.667991l-26.586518-22.849404-12.93459 0 0 40.348963 12.906961 0 0-22.88829 26.614148 22.88829 12.906961 0 0-40.348963-12.906961 0L550.751582 838.667991 550.751582 838.667991zM550.751582 838.667991" p-id="1765"></path></svg>